<svg xmlns="http://www.w3.org/2000/svg" width="438" height="196" viewBox="1038 1996 438 196"><path fill="#000" fill-rule="nonzero" d="M 1054.3982 2055.0374 L 1054.3982 2085.5404 L 1049.4242 2085.5404 L 1049.4242 2055.0374 L 1042.2172 2055.0374 L 1042.2172 2050.4184 L 1061.6052 2050.4184 L 1061.6052 2055.0374 Z  M 1079.1155 2068.1314 C 1079.1155 2064.5284 1077.5925 2062.3964 1074.2935 2062.3964 C 1071.0455 2062.3964 1069.3205 2064.7314 1069.3205 2068.2844 L 1069.3205 2085.5404 L 1064.4985 2085.5404 L 1064.4985 2048.4394 L 1069.3205 2048.4394 L 1069.3205 2060.9244 C 1070.1325 2059.7064 1072.0605 2058.0824 1075.4605 2058.0824 C 1081.6535 2058.0824 1083.9365 2062.3454 1083.9365 2067.6244 L 1083.9365 2085.5404 L 1079.1155 2085.5404 Z  M 1092.7683 2073.4100 C 1093.1233 2078.5360 1096.4233 2081.6830 1101.5483 2081.6830 C 1105.8633 2081.6830 1108.2993 2079.5000 1110.0243 2076.3030 L 1113.7293 2078.2320 C 1111.9533 2082.3930 1107.9433 2085.9970 1101.5483 2085.9970 C 1093.3773 2085.9970 1087.7943 2080.5160 1087.7943 2072.0400 C 1087.7943 2063.8170 1093.2753 2057.9300 1101.0413 2057.9300 C 1109.0093 2057.9300 1114.2373 2063.0560 1114.3383 2071.2280 C 1114.3383 2071.7350 1114.3383 2072.5980 1114.2373 2073.4100 Z  M 1092.9203 2069.5020 L 1109.3143 2069.5020 C 1109.0093 2065.0360 1105.7103 2062.0920 1100.9903 2062.0920 C 1096.5753 2062.0920 1093.5303 2064.9340 1092.9203 2069.5020 M 1062.5398 2113.8925 L 1071.3708 2130.6915 L 1066.0408 2130.6915 L 1057.7688 2114.8065 L 1053.6068 2114.8065 L 1053.6068 2130.6915 L 1048.6328 2130.6915 L 1048.6328 2095.5705 L 1057.7178 2095.5705 C 1064.2648 2095.5705 1068.0208 2098.8185 1068.0208 2105.1125 C 1068.0208 2109.4265 1065.9398 2112.4715 1062.5398 2113.8925 M 1053.6068 2099.9355 L 1053.6068 2110.5935 L 1057.4638 2110.5935 C 1061.0168 2110.5935 1062.8438 2108.4615 1062.8438 2105.1625 C 1062.8438 2101.9145 1061.0168 2099.9355 1057.4638 2099.9355 Z  M 1085.3787 2103.0821 C 1093.5497 2103.0821 1099.3867 2108.9691 1099.3867 2117.0901 C 1099.3867 2125.2101 1093.3467 2131.1481 1085.3277 2131.1481 C 1077.2067 2131.1481 1071.3707 2125.4131 1071.3707 2117.1411 C 1071.3707 2108.9191 1077.4097 2103.0821 1085.3787 2103.0821 M 1085.3787 2126.7841 C 1090.7577 2126.7841 1094.5137 2122.7741 1094.5137 2117.1411 C 1094.5137 2111.5581 1090.7077 2107.4471 1085.3787 2107.4471 C 1079.9477 2107.4471 1076.2427 2111.5071 1076.2427 2117.1411 C 1076.2427 2122.7741 1080.0487 2126.7841 1085.3787 2126.7841 M 1084.0587 2094.4541 L 1087.9157 2101.3061 L 1083.2967 2101.3061 L 1079.2877 2094.4541 Z  M 1115.8049 2103.0821 C 1123.9759 2103.0821 1129.8129 2108.9691 1129.8129 2117.0901 C 1129.8129 2125.2101 1123.7729 2131.1481 1115.7539 2131.1481 C 1107.6339 2131.1481 1101.7969 2125.4131 1101.7969 2117.1411 C 1101.7969 2108.9191 1107.8369 2103.0821 1115.8049 2103.0821 M 1115.8049 2126.7841 C 1121.1849 2126.7841 1124.9399 2122.7741 1124.9399 2117.1411 C 1124.9399 2111.5581 1121.1339 2107.4471 1115.8049 2107.4471 C 1110.3739 2107.4471 1106.6699 2111.5071 1106.6699 2117.1411 C 1106.6699 2122.7741 1110.4759 2126.7841 1115.8049 2126.7841 M 1121.7939 2094.4541 L 1117.7339 2101.3061 L 1113.0639 2101.3061 L 1117.0229 2094.4541 Z  M 1138.8215 2103.5386 L 1143.4915 2103.5386 L 1143.4915 2107.6496 L 1138.8215 2107.6496 L 1138.8215 2130.6916 L 1134.0005 2130.6916 L 1134.0005 2107.6496 L 1131.2595 2107.6496 L 1131.2595 2103.5386 L 1134.0005 2103.5386 L 1134.0005 2101.8136 C 1134.0005 2096.8396 1135.9795 2093.5916 1141.8165 2093.5916 L 1143.5925 2093.5916 L 1143.5925 2097.7026 L 1142.2725 2097.7026 C 1139.3805 2097.7026 1138.8215 2099.5296 1138.8215 2101.8136 Z  M 1127.0549 2081.2643 L 1125.9519 2065.4033 C 1127.3959 2065.3033 1128.8539 2065.1013 1130.2849 2064.8043 C 1147.5459 2061.2193 1158.6719 2044.2593 1155.0869 2026.9983 C 1153.9029 2021.2963 1151.1979 2016.0393 1147.2659 2011.7953 L 1158.9289 2000.9893 C 1164.8269 2007.3553 1168.8809 2015.2313 1170.6539 2023.7653 C 1176.0219 2049.6093 1159.3629 2075.0033 1133.5179 2080.3713 C 1131.3879 2080.8143 1129.2129 2081.1143 1127.0549 2081.2643 M 1165.0242 2045.7824 C 1147.3132 2045.7824 1129.9372 2039.2214 1116.6002 2027.1094 L 1127.2902 2015.3394 C 1140.5142 2027.3494 1158.8342 2032.3544 1176.3022 2028.7264 C 1184.1502 2027.0964 1191.3862 2023.9004 1197.8092 2019.2284 L 1207.1632 2032.0844 C 1198.9042 2038.0934 1189.6092 2042.2014 1179.5352 2044.2934 C 1174.7242 2045.2924 1169.8612 2045.7824 1165.0242 2045.7824 M 1187.0535 2085.9020 L 1171.3835 2083.2100 C 1172.3145 2077.7900 1172.2145 2072.2830 1171.0835 2066.8440 C 1169.2195 2057.8660 1164.6985 2049.8350 1158.0105 2043.6180 L 1168.8335 2031.9730 C 1177.9515 2040.4460 1184.1125 2051.3860 1186.6505 2063.6100 C 1188.1875 2071.0090 1188.3235 2078.5090 1187.0535 2085.9020 M 1134.0530 2152.3127 L 1099.3130 2152.3127 L 1099.3130 2155.7887 L 1106.7520 2155.7887 C 1105.7200 2157.8797 1104.0020 2159.3197 1101.5390 2159.5707 L 1100.0880 2159.7197 L 1099.3130 2159.7197 L 1099.3130 2163.1127 L 1113.7670 2163.1127 L 1113.7670 2166.1747 L 1099.3130 2166.1747 L 1099.3130 2169.7337 L 1113.7670 2169.7337 L 1113.7670 2172.6707 L 1096.8310 2172.6707 L 1096.8310 2176.3127 L 1134.8990 2176.3127 L 1134.8990 2172.6707 L 1117.9060 2172.6707 L 1117.9060 2169.7337 L 1133.2440 2169.7337 L 1133.2440 2166.1747 L 1117.9060 2166.1747 L 1117.9060 2163.1127 L 1132.4160 2163.1127 L 1132.4160 2159.7197 L 1132.4130 2159.7197 L 1130.9620 2159.5707 C 1128.4990 2159.3197 1126.7810 2157.8797 1125.7490 2155.7887 L 1134.0530 2155.7887 Z  M 1123.9360 2159.7197 L 1108.5650 2159.7197 C 1109.7230 2158.6107 1110.6490 2157.2767 1111.2410 2155.7887 L 1121.2610 2155.7887 C 1121.8510 2157.2767 1122.7790 2158.6107 1123.9360 2159.7197 M 1095.5891 2168.4504 L 1095.5891 2149.2094 L 1133.2441 2149.2094 L 1133.2441 2148.0144 L 1133.2441 2145.6504 L 1133.2441 2142.5474 L 1133.2541 2142.5474 L 1133.2541 2139.0714 L 1099.3231 2139.0714 L 1099.3231 2142.5474 L 1129.2711 2142.5474 L 1129.2711 2145.6504 L 1095.5891 2145.6504 L 1095.5891 2139.0714 L 1091.4511 2139.0714 L 1091.4511 2168.4504 C 1091.4511 2170.5034 1089.7811 2172.1744 1087.7271 2172.1744 L 1086.9001 2172.1744 L 1086.9001 2176.3124 L 1087.7271 2176.3124 C 1092.0631 2176.3124 1095.5891 2172.7854 1095.5891 2168.4504 M 1151.4504 2145.6495 L 1151.4504 2141.8425 L 1136.9884 2141.8425 L 1136.9884 2145.6495 L 1143.6714 2145.6495 L 1143.6714 2168.3665 C 1143.6714 2170.5565 1141.8894 2172.3385 1139.6994 2172.3385 L 1137.3814 2172.3385 L 1137.3814 2176.3115 L 1139.6994 2176.3115 C 1144.0794 2176.3115 1147.6434 2172.7475 1147.6434 2168.3665 L 1147.6434 2145.6495 Z  M 1153.1057 2139.2773 L 1153.1057 2143.0013 L 1164.9217 2143.0013 L 1163.7127 2147.5113 L 1154.2647 2147.5113 L 1154.2647 2165.5533 L 1158.0707 2165.5533 L 1158.0707 2151.3183 L 1175.4497 2151.3183 L 1175.4497 2165.5533 L 1179.2567 2165.5533 L 1179.2567 2147.5113 L 1167.8257 2147.5113 L 1169.0337 2143.0013 L 1183.7127 2143.0013 L 1183.7127 2139.2773 Z  M 1168.8708 2165.0939 L 1168.8708 2153.9669 L 1164.6498 2153.9669 L 1164.6498 2165.0039 C 1162.2768 2169.5179 1157.1188 2172.4219 1151.4018 2172.4219 L 1151.3998 2172.4219 L 1151.4018 2176.3109 C 1157.6238 2176.3109 1163.3488 2173.4949 1166.7368 2168.9579 C 1170.1258 2173.4939 1175.8558 2176.3109 1182.0708 2176.3109 L 1182.0708 2172.4219 C 1176.3998 2172.4219 1171.2668 2169.5549 1168.8708 2165.0939 M 1084.4167 2171.7948 C 1074.7497 2170.9848 1067.0317 2163.2368 1066.3197 2153.5528 L 1084.4167 2153.5528 L 1084.4167 2149.4148 L 1066.2597 2149.4148 L 1066.2597 2138.6568 L 1062.0397 2138.6568 L 1062.0397 2149.4148 L 1043.0387 2149.4148 L 1043.0387 2153.5528 L 1061.9797 2153.5528 C 1061.2277 2163.7888 1052.6547 2171.8888 1042.2187 2171.8888 L 1042.2187 2176.1038 C 1051.9737 2176.1038 1060.3847 2170.2678 1064.1497 2161.9088 C 1067.6987 2169.7858 1075.3797 2175.3918 1084.4167 2176.0148 Z  M 1312.5817 2002.9063 L 1470.1227 2093.8623 L 1312.5817 2184.8183 Z  M 1311.0657 2000.2803 L 1311.0657 2002.9063 L 1311.0657 2184.8183 L 1311.0657 2187.4443 L 1313.3397 2186.1313 L 1470.8797 2095.1753 L 1473.1537 2093.8623 L 1470.8797 2092.5493 L 1313.3397 2001.5933 Z  M 1337.9041 2113.0376 C 1336.3121 2113.8066 1334.4541 2114.1906 1332.3321 2114.1906 C 1330.2571 2114.1906 1328.4111 2113.7836 1326.7951 2112.9656 C 1325.1781 2112.1486 1323.9011 2111.1156 1322.9601 2109.8656 C 1322.0191 2108.6166 1321.4521 2107.2956 1321.2591 2105.9006 L 1315.1081 2105.9006 C 1315.4451 2108.4006 1316.3501 2110.7076 1317.8221 2112.8216 C 1319.2931 2114.9366 1321.2591 2116.6416 1323.7201 2117.9396 C 1326.1801 2119.2366 1329.0501 2119.8856 1332.3321 2119.8856 C 1335.5631 2119.8856 1338.4471 2119.2246 1340.9801 2117.9036 C 1343.5121 2116.5826 1345.4901 2114.8166 1346.9141 2112.6056 C 1348.3361 2110.3956 1349.0491 2108.0166 1349.0491 2105.4686 C 1349.0491 2099.3616 1345.4551 2095.0666 1340.5471 2093.1826 C 1344.2461 2091.4266 1347.8181 2087.9826 1347.8181 2082.1126 C 1347.8181 2079.5166 1347.1541 2077.1376 1345.8281 2074.9756 C 1344.5011 2072.8126 1342.6321 2071.0826 1340.2201 2069.7856 C 1337.8071 2068.4876 1335.0571 2067.8386 1331.9701 2067.8386 C 1329.0751 2067.8386 1326.4571 2068.4876 1324.1181 2069.7856 C 1321.7771 2071.0826 1319.9081 2072.7766 1318.5091 2074.8676 C 1317.1101 2076.9576 1316.3111 2079.2286 1316.1191 2081.6796 L 1322.2701 2081.6796 C 1322.4151 2080.2866 1322.8991 2078.9526 1323.7201 2077.6786 C 1324.5401 2076.4056 1325.6741 2075.3966 1327.1211 2074.6506 C 1328.5681 2073.9066 1330.2081 2073.5336 1332.0421 2073.5336 C 1333.9711 2073.5336 1335.6721 2073.9186 1337.1441 2074.6866 C 1338.6151 2075.4566 1339.7371 2076.5016 1340.5091 2077.8226 C 1341.2801 2079.1456 1341.6671 2080.6466 1341.6671 2082.3286 C 1341.6671 2083.9626 1341.2691 2085.4166 1340.4731 2086.6896 C 1339.6771 2087.9636 1338.5191 2088.9606 1336.9991 2089.6816 C 1335.4801 2090.4016 1333.2231 2090.7626 1329.8641 2090.7626 L 1328.9021 2090.7626 L 1328.9021 2096.0976 L 1329.8891 2096.0976 C 1334.9161 2096.0976 1336.1311 2096.4936 1337.7951 2097.2866 C 1339.4601 2098.0796 1340.7261 2099.1736 1341.5951 2100.5666 C 1342.4631 2101.9606 1342.8971 2103.5466 1342.8971 2105.3246 C 1342.8971 2107.0066 1342.4631 2108.5206 1341.5951 2109.8656 C 1340.7261 2111.2116 1339.4961 2112.2696 1337.9041 2113.0376 M 1377.4884 2087.5187 C 1374.8834 2085.9817 1372.0124 2085.2117 1368.8764 2085.2117 C 1367.7664 2085.2117 1366.7294 2085.3447 1365.7654 2085.6087 C 1365.5954 2085.6547 1365.4354 2085.7017 1365.2814 2085.7487 L 1377.0324 2068.5967 L 1370.0714 2068.5967 L 1355.9954 2089.4647 C 1355.1744 2090.7157 1354.4394 2091.9517 1353.7884 2093.1777 C 1353.1374 2094.4027 1352.5694 2095.8217 1352.0874 2097.4307 C 1351.6044 2099.0417 1351.3644 2100.7827 1351.3644 2102.6567 C 1351.3644 2105.8777 1352.1234 2108.7967 1353.6434 2111.4157 C 1355.1634 2114.0357 1357.2494 2116.1017 1359.9034 2117.6147 C 1362.5564 2119.1287 1365.4754 2119.8857 1368.6594 2119.8857 C 1371.8434 2119.8857 1374.7494 2119.1287 1377.3804 2117.6147 C 1380.0094 2116.1017 1382.0954 2114.0357 1383.6394 2111.4157 C 1385.1834 2108.7967 1385.9554 2105.8777 1385.9554 2102.6567 C 1385.9554 2099.3897 1385.1954 2096.4337 1383.6754 2093.7907 C 1382.1564 2091.1477 1380.0934 2089.0577 1377.4884 2087.5187 M 1378.3564 2108.6047 C 1377.3914 2110.4067 1376.0524 2111.7887 1374.3404 2112.7497 C 1372.6274 2113.7117 1370.7334 2114.1907 1368.6594 2114.1907 C 1366.5364 2114.1907 1364.6314 2113.7117 1362.9424 2112.7497 C 1361.2534 2111.7887 1359.9144 2110.4067 1358.9264 2108.6047 C 1357.9364 2106.8017 1357.4424 2104.7727 1357.4424 2102.5127 C 1357.4424 2100.2057 1357.9364 2098.1637 1358.9264 2096.3857 C 1359.9144 2094.6077 1361.2534 2093.2387 1362.9424 2092.2767 C 1364.6314 2091.3157 1366.5364 2090.8347 1368.6594 2090.8347 C 1370.7334 2090.8347 1372.6274 2091.3157 1374.3404 2092.2767 C 1376.0524 2093.2387 1377.3914 2094.6077 1378.3564 2096.3857 C 1379.3214 2098.1637 1379.8044 2100.2057 1379.8044 2102.5127 C 1379.8044 2104.7727 1379.3214 2106.8017 1378.3564 2108.6047 M 1423.3397 2079.6973 C 1421.6507 2075.7813 1419.3827 2072.8253 1416.5367 2070.8303 C 1413.6897 2068.8373 1410.5307 2067.8393 1407.0567 2067.8393 C 1403.6307 2067.8393 1400.4957 2068.8373 1397.6497 2070.8303 C 1394.8017 2072.8253 1392.4337 2075.7813 1390.7457 2079.6973 C 1389.0557 2083.6143 1388.2127 2088.3363 1388.2127 2093.8623 C 1388.2127 2099.3883 1389.1587 2104.1103 1390.8467 2108.0273 C 1392.5357 2111.9443 1394.8037 2114.8993 1397.6497 2116.8943 C 1400.4967 2118.8883 1403.6557 2119.8863 1407.1297 2119.8863 C 1410.5557 2119.8863 1413.6907 2118.8883 1416.5367 2116.8943 C 1419.3847 2114.8993 1421.7527 2111.9443 1423.4407 2108.0273 C 1425.1297 2104.1103 1425.9737 2099.3883 1425.9737 2093.8623 C 1425.9737 2088.3363 1425.0277 2083.6143 1423.3397 2079.6973 M 1418.0707 2105.3243 C 1416.9387 2108.3523 1415.3177 2110.5863 1413.4107 2112.0283 C 1411.5057 2113.4703 1409.4447 2114.1913 1407.1297 2114.1913 C 1404.8137 2114.1913 1402.7417 2113.4703 1400.8117 2112.0283 C 1398.8827 2110.5863 1397.2497 2108.3523 1396.1157 2105.3243 C 1394.9827 2102.2963 1394.3637 2098.4273 1394.3637 2093.8623 C 1394.3637 2089.2973 1394.9807 2085.4283 1396.1157 2082.4003 C 1397.2477 2079.3733 1398.8687 2077.1383 1400.7757 2075.6963 C 1402.6807 2074.2543 1404.7407 2073.5333 1407.0567 2073.5333 C 1409.3727 2073.5333 1411.4447 2074.2543 1413.3747 2075.6963 C 1415.3037 2077.1383 1416.9367 2079.3733 1418.0707 2082.4003 C 1419.2037 2085.4283 1419.8227 2089.2973 1419.8227 2093.8623 C 1419.8227 2098.4273 1419.2057 2102.2963 1418.0707 2105.3243 M 1331.9956 2122.1598 L 1315.1086 2122.1598 L 1315.1086 2123.4738 C 1318.5256 2123.4738 1320.0446 2124.4948 1320.0446 2127.8848 L 1320.0446 2160.9018 C 1320.0446 2164.2928 1318.5256 2165.3138 1315.1086 2165.3138 L 1315.1086 2166.6268 L 1331.9956 2166.6268 C 1343.5576 2166.6268 1353.8146 2159.6238 1353.8146 2144.3938 C 1353.8146 2129.1638 1343.9466 2122.1598 1331.9956 2122.1598 M 1331.9956 2164.3478 C 1329.6616 2164.3478 1327.8266 2164.0698 1326.2706 2163.3478 L 1326.2706 2125.4398 C 1327.8266 2124.7168 1329.6616 2124.4388 1331.9956 2124.4388 C 1341.6116 2124.4388 1346.9776 2132.1098 1346.9776 2144.3938 C 1346.9776 2156.6778 1341.6116 2164.3478 1331.9956 2164.3478"/></svg>